<?xml version="1.0" encoding="UTF-8"?>
<svg width="46px" height="46px" viewBox="0 0 46 46" version="1.1" xmlns="http://www.w3.org/2000/svg" xmlns:xlink="http://www.w3.org/1999/xlink">
    <!-- Generator: Sketch 47 (45396) - http://www.bohemiancoding.com/sketch -->
    <title>Corporate 1</title>
    <desc>Created with Sketch.</desc>
    <defs></defs>
    <g id="Symbols" stroke="none" stroke-width="1" fill="none" fill-rule="evenodd">
        <g id="Corporate-1">
            <rect id="Rectangle-2" fill="#0080FF" x="0" y="0" width="46" height="46" rx="23"></rect>
            <path d="M31.3985345,14.8008591 L26.8147558,14.8008591 C26.8066316,12.7039513 25.0988319,11 22.9997862,11 C20.9007405,11 19.1929409,12.7039513 19.1848166,14.8008591 L14.6010379,14.8008591 C13.1668967,14.8008591 12,15.9677557 12,17.401897 L12,21.8779227 C12,22.7074498 12.3916736,23.4459 12.9984257,23.9222367 L12.9984257,30.749587 C12.9984257,32.1512313 14.3166897,33.2920449 15.9372607,33.2920449 L30.0627393,33.2920449 C31.6833103,33.2920449 33.0015743,32.1516589 33.0015743,30.749587 L33.0015743,23.9222367 C33.6083264,23.4454724 34,22.7074498 34,21.8779227 L34,17.401897 C33.9995724,15.9677557 32.8326757,14.8008591 31.3985345,14.8008591 Z M22.9997862,12.2827739 C24.3915959,12.2827739 25.5238577,13.4111873 25.5319819,14.8008591 L20.4675905,14.8008591 C20.4757148,13.4111873 21.6079765,12.2827739 22.9997862,12.2827739 Z M13.2827739,17.401897 C13.2827739,16.6749917 13.8741327,16.083633 14.6010379,16.083633 L31.3981069,16.083633 C32.1250121,16.083633 32.7163709,16.6749917 32.7163709,17.401897 L32.7163709,21.8779227 C32.7163709,22.6048279 32.1250121,23.1961867 31.3981069,23.1961867 L27.0512138,23.1961867 L27.0512138,22.6437387 C27.0512138,22.2306855 26.7159822,21.8954539 26.302929,21.8954539 L26.0450914,21.8954539 C25.6320382,21.8954539 25.2968067,22.2306855 25.2968067,22.6437387 L25.2968067,23.1961867 L20.7027657,23.1961867 L20.7027657,22.6437387 C20.7027657,22.2306855 20.3679618,21.8954539 19.954481,21.8954539 L19.6966434,21.8954539 C19.2835902,21.8954539 18.9483586,22.2306855 18.9483586,22.6437387 L18.9483586,23.1961867 L14.6010379,23.1961867 C13.8741327,23.1961867 13.2827739,22.6048279 13.2827739,21.8779227 L13.2827739,17.401897 Z M31.7183728,30.749587 C31.7183728,31.4444228 30.9756467,32.009271 30.0623117,32.009271 L15.9368331,32.009271 C15.0239257,32.009271 14.280772,31.4444228 14.280772,30.749587 L14.280772,24.4571534 C14.3859595,24.4699811 14.4924297,24.4789606 14.6010379,24.4789606 L18.9483586,24.4789606 L18.9483586,24.6140794 C18.9483586,25.0271326 19.2835902,25.3623642 19.6966434,25.3623642 L19.954481,25.3623642 C20.3679618,25.3623642 20.7027657,25.0271326 20.7027657,24.6140794 L20.7027657,24.4789606 L25.2972343,24.4789606 L25.2972343,24.6140794 C25.2972343,25.0271326 25.6324658,25.3623642 26.045519,25.3623642 L26.3033566,25.3623642 C26.7164098,25.3623642 27.0516414,25.0271326 27.0516414,24.6140794 L27.0516414,24.4789606 L31.3985345,24.4789606 C31.5071427,24.4789606 31.613613,24.4699811 31.7188004,24.4571534 L31.7188004,30.749587 L31.7183728,30.749587 Z" id="Shape" fill="#FFFFFF" fill-rule="nonzero"></path>
        </g>
    </g>
</svg>