<?xml version="1.0" encoding="UTF-8"?>
<svg width="46px" height="46px" viewBox="0 0 46 46" version="1.1" xmlns="http://www.w3.org/2000/svg" xmlns:xlink="http://www.w3.org/1999/xlink">
    <!-- Generator: Sketch 47 (45396) - http://www.bohemiancoding.com/sketch -->
    <title>Personal 2</title>
    <desc>Created with Sketch.</desc>
    <defs></defs>
    <g id="Symbols" stroke="none" stroke-width="1" fill="none" fill-rule="evenodd">
        <g id="Personal-2">
            <rect id="Rectangle-2" fill="#00DC85" x="0" y="0" width="46" height="46" rx="23"></rect>
            <path d="M32,33.2142857 C32,33.6403339 31.6546197,33.9857143 31.2285714,33.9857143 C30.8025232,33.9857143 30.4571429,33.6403339 30.4571429,33.2142857 C30.4571429,29.0958194 27.1184663,25.7571429 23,25.7571429 C18.8815337,25.7571429 15.5428571,29.0958194 15.5428571,33.2142857 C15.5428571,33.6403339 15.1974768,33.9857143 14.7714286,33.9857143 C14.3453803,33.9857143 14,33.6403339 14,33.2142857 C14,28.243723 18.0294373,24.2142857 23,24.2142857 C27.9705627,24.2142857 32,28.243723 32,33.2142857 Z M23,22.8 C20.0176623,22.8 17.6,20.3823377 17.6,17.4 C17.6,14.4176623 20.0176623,12 23,12 C25.9823377,12 28.4,14.4176623 28.4,17.4 C28.4,20.3823377 25.9823377,22.8 23,22.8 Z M23,21.2571429 C25.1302412,21.2571429 26.8571429,19.5302412 26.8571429,17.4 C26.8571429,15.2697588 25.1302412,13.5428571 23,13.5428571 C20.8697588,13.5428571 19.1428571,15.2697588 19.1428571,17.4 C19.1428571,19.5302412 20.8697588,21.2571429 23,21.2571429 Z" id="Shape" fill="#FFFFFF" fill-rule="nonzero"></path>
        </g>
    </g>
</svg>